<svg width="777" height="1528" viewBox="0 0 777 1528" fill="none" xmlns="http://www.w3.org/2000/svg">
<rect width="777" height="1414" fill="#262626"/>
<rect x="39" y="364" width="698" height="686" fill="url(#paint0_radial_796_69)"/>
<path d="M39 294L345 330L369 364H39V294Z" fill="#344B6B"/>
<path d="M737 1120L431 1084L407 1050L737 1050V1120Z" fill="#344B6B"/>
<rect x="178" y="151.984" width="13.1029" height="59.016" fill="#0E7DAC"/>
<path d="M178 157.449L191.103 152.151L226.77 202.571L217.309 207.851L178 157.449Z" fill="#0E7DAC"/>
<rect x="216.898" y="149" width="13.1029" height="59.016" fill="#0E7DAC"/>
<ellipse cx="203.707" cy="109.53" rx="21.3941" ry="21.5302" fill="#0E7DAC"/>
<ellipse cx="132.394" cy="179.702" rx="21.3941" ry="21.5302" fill="#0E7DAC"/>
<ellipse cx="203.707" cy="251.47" rx="21.3941" ry="21.5302" fill="#0E7DAC"/>
<path d="M133.977 181.297L202.913 111.922L280.566 181.297L202.913 256.254L133.977 181.297Z" stroke="#0E7DAC" stroke-width="4"/>
<ellipse cx="276.605" cy="179.702" rx="21.3941" ry="21.5302" fill="#0E7DAC"/>
<path d="M365.291 158.364V202H357.322L338.338 174.536H338.018V202H328.793V158.364H336.889L355.724 185.807H356.108V158.364H365.291ZM372.914 202V158.364H402.317V165.97H382.14V176.368H400.804V183.974H382.14V194.393H402.402V202H372.914ZM418.878 158.364V202H409.652V158.364H418.878ZM455.403 172.469C455.105 171.432 454.686 170.516 454.146 169.72C453.606 168.911 452.946 168.229 452.164 167.675C451.397 167.107 450.517 166.673 449.522 166.375C448.542 166.077 447.456 165.928 446.262 165.928C444.032 165.928 442.072 166.482 440.382 167.589C438.706 168.697 437.399 170.31 436.461 172.426C435.524 174.528 435.055 177.099 435.055 180.139C435.055 183.179 435.517 185.764 436.44 187.895C437.363 190.026 438.67 191.652 440.36 192.774C442.051 193.882 444.047 194.436 446.348 194.436C448.436 194.436 450.218 194.067 451.696 193.328C453.187 192.575 454.324 191.517 455.105 190.153C455.9 188.79 456.298 187.178 456.298 185.317L458.173 185.594H446.923V178.648H465.183V184.145C465.183 187.98 464.373 191.276 462.754 194.031C461.135 196.773 458.904 198.889 456.064 200.381C453.223 201.858 449.97 202.597 446.305 202.597C442.214 202.597 438.62 201.695 435.524 199.891C432.427 198.072 430.012 195.494 428.279 192.156C426.561 188.804 425.701 184.827 425.701 180.224C425.701 176.687 426.213 173.534 427.235 170.764C428.272 167.98 429.721 165.622 431.582 163.69C433.443 161.759 435.609 160.288 438.081 159.28C440.552 158.271 443.23 157.767 446.113 157.767C448.585 157.767 450.886 158.129 453.017 158.854C455.147 159.564 457.037 160.572 458.684 161.879C460.346 163.186 461.703 164.741 462.754 166.545C463.805 168.335 464.48 170.31 464.778 172.469H455.403ZM472.113 202V158.364H481.339V176.368H500.067V158.364H509.272V202H500.067V183.974H481.339V202H472.113ZM540.55 170.913C540.38 169.195 539.648 167.859 538.356 166.908C537.063 165.956 535.309 165.48 533.093 165.48C531.587 165.48 530.316 165.693 529.279 166.119C528.242 166.531 527.447 167.107 526.893 167.845C526.353 168.584 526.083 169.422 526.083 170.359C526.055 171.141 526.218 171.822 526.573 172.405C526.942 172.987 527.447 173.491 528.086 173.918C528.725 174.33 529.464 174.692 530.302 175.004C531.14 175.303 532.035 175.558 532.987 175.771L536.907 176.709C538.81 177.135 540.558 177.703 542.148 178.413C543.739 179.124 545.117 179.997 546.282 181.034C547.447 182.071 548.349 183.293 548.988 184.699C549.641 186.105 549.975 187.717 549.989 189.536C549.975 192.206 549.293 194.521 547.944 196.482C546.609 198.428 544.677 199.94 542.148 201.02C539.634 202.085 536.602 202.618 533.05 202.618C529.528 202.618 526.46 202.078 523.846 200.999C521.246 199.919 519.215 198.321 517.752 196.205C516.303 194.074 515.543 191.439 515.472 188.3H524.4C524.499 189.763 524.918 190.984 525.657 191.964C526.41 192.93 527.411 193.662 528.661 194.159C529.925 194.642 531.353 194.884 532.944 194.884C534.506 194.884 535.863 194.656 537.013 194.202C538.178 193.747 539.08 193.115 539.719 192.305C540.359 191.496 540.678 190.565 540.678 189.514C540.678 188.534 540.387 187.71 539.805 187.043C539.237 186.375 538.398 185.807 537.29 185.338C536.197 184.869 534.854 184.443 533.263 184.06L528.512 182.866C524.833 181.972 521.928 180.572 519.798 178.669C517.667 176.766 516.609 174.202 516.623 170.977C516.609 168.335 517.312 166.027 518.732 164.053C520.167 162.078 522.134 160.537 524.634 159.429C527.134 158.321 529.975 157.767 533.157 157.767C536.396 157.767 539.222 158.321 541.637 159.429C544.066 160.537 545.955 162.078 547.305 164.053C548.654 166.027 549.35 168.314 549.393 170.913H540.55ZM556.195 202V158.364H565.421V176.368H584.15V158.364H593.354V202H584.15V183.974H565.421V202H556.195ZM641.06 180.182C641.06 184.94 640.158 188.989 638.354 192.327C636.564 195.665 634.121 198.214 631.025 199.976C627.942 201.723 624.476 202.597 620.627 202.597C616.749 202.597 613.269 201.716 610.186 199.955C607.104 198.193 604.668 195.643 602.878 192.305C601.088 188.967 600.194 184.926 600.194 180.182C600.194 175.423 601.088 171.375 602.878 168.037C604.668 164.699 607.104 162.156 610.186 160.409C613.269 158.648 616.749 157.767 620.627 157.767C624.476 157.767 627.942 158.648 631.025 160.409C634.121 162.156 636.564 164.699 638.354 168.037C640.158 171.375 641.06 175.423 641.06 180.182ZM631.706 180.182C631.706 177.099 631.245 174.5 630.321 172.384C629.412 170.267 628.127 168.662 626.465 167.568C624.803 166.474 622.857 165.928 620.627 165.928C618.397 165.928 616.451 166.474 614.789 167.568C613.127 168.662 611.834 170.267 610.911 172.384C610.002 174.5 609.547 177.099 609.547 180.182C609.547 183.264 610.002 185.864 610.911 187.98C611.834 190.097 613.127 191.702 614.789 192.795C616.451 193.889 618.397 194.436 620.627 194.436C622.857 194.436 624.803 193.889 626.465 192.795C628.127 191.702 629.412 190.097 630.321 187.98C631.245 185.864 631.706 183.264 631.706 180.182ZM647.894 202V158.364H665.11C668.42 158.364 671.239 158.996 673.569 160.26C675.898 161.51 677.674 163.25 678.896 165.48C680.131 167.696 680.749 170.253 680.749 173.151C680.749 176.048 680.124 178.605 678.874 180.821C677.624 183.037 675.813 184.763 673.441 185.999C671.083 187.234 668.228 187.852 664.876 187.852H653.903V180.459H663.384C665.16 180.459 666.623 180.153 667.773 179.543C668.938 178.918 669.805 178.058 670.373 176.964C670.955 175.857 671.246 174.585 671.246 173.151C671.246 171.702 670.955 170.437 670.373 169.358C669.805 168.264 668.938 167.419 667.773 166.822C666.609 166.212 665.131 165.906 663.342 165.906H657.12V202H647.894Z" fill="#0E7DAC"/>
<path d="M280.5 786.2H283.65V793.76L290.09 800.2H312.63L281.2 763.17V753.51L287.71 747H315.22L320.12 751.9V746.3H323.27V763.8H320.12V756.24L313.68 749.8H293.24L324.67 786.83V796.49L318.16 803H288.55L283.65 798.1V803.7H280.5V786.2ZM338.911 803L331.701 795.79V754.21L338.911 747H370.341L377.551 754.21V795.79L370.341 803H338.911ZM347.801 749.8V800.2H361.451V749.8H347.801ZM391.753 803L384.543 795.79V754.21L391.753 747H423.183L430.393 754.21V795.79L423.183 803H391.753ZM400.643 749.8V800.2H414.293V749.8H400.643ZM495.065 749.8H489.465V803H470.565L444.035 749.8V800.2H449.635V803H435.285V800.2H440.885V749.8H435.285V747H459.785L486.315 800.2V749.8H480.715V747H495.065V749.8Z" fill="white"/>
<g clip-path="url(#clip0_796_69)">
<path d="M111 1204.98C104.743 1204.98 98.6241 1203.14 93.402 1199.7L81.106 1203.63L85.092 1191.75C81.1234 1186.3 78.9898 1179.74 79 1173C79 1155.36 93.346 1141.02 110.98 1141.02C128.614 1141.02 142.96 1155.36 142.96 1173C142.96 1190.64 128.62 1204.98 110.98 1204.98H111Z" fill="#FEFEFE"/>
<path d="M81.9086 1202.85L85.5813 1191.9L85.6634 1191.66L85.5114 1191.45C81.7363 1186.27 79.5156 1179.88 79.5156 1173C79.5156 1155.64 93.6338 1141.52 110.991 1141.52L110.991 1141.52H111.01C128.369 1141.52 142.491 1155.64 142.491 1173C142.491 1190.36 128.37 1204.48 111.01 1204.48C104.605 1204.48 98.665 1202.58 93.6875 1199.28L93.4876 1199.15L93.2593 1199.22L81.9086 1202.85Z" fill="url(#paint1_radial_796_69)" stroke="#0E7DAC"/>
<path d="M102.068 1157.26C101.468 1155.78 100.978 1155.72 100.038 1155.66L98.9659 1155.62C97.7459 1155.62 96.4659 1155.98 95.6939 1156.77C94.7539 1157.73 92.4219 1159.97 92.4219 1164.55C92.4219 1169.14 95.7679 1173.58 96.2219 1174.2C96.6919 1174.8 102.746 1184.37 112.148 1188.26C119.5 1191.31 121.68 1191.03 123.354 1190.67C125.798 1190.14 128.862 1188.34 129.634 1186.16C130.406 1183.98 130.406 1182.12 130.178 1181.72C129.95 1181.32 129.332 1181.12 128.392 1180.63C127.452 1180.14 122.884 1177.9 122.018 1177.6C121.172 1177.28 120.364 1177.39 119.724 1178.3C118.824 1179.56 117.938 1180.84 117.224 1181.6C116.66 1182.2 115.738 1182.28 114.968 1181.96C113.934 1181.53 111.038 1180.52 107.468 1177.34C104.704 1174.88 102.824 1171.81 102.278 1170.89C101.732 1169.95 102.222 1169.4 102.654 1168.9C103.124 1168.31 103.574 1167.9 104.046 1167.36C104.518 1166.81 104.78 1166.53 105.08 1165.89C105.4 1165.29 105.174 1164.63 104.948 1164.16C104.722 1163.69 102.842 1159.1 102.072 1157.24L102.068 1157.26Z" fill="#FEFEFE"/>
</g>
<path fill-rule="evenodd" clip-rule="evenodd" d="M138.968 1258.09C139.029 1264.38 138.984 1270.72 138.984 1277.03C138.984 1280.18 139.002 1283.32 138.968 1286.47C138.935 1289.61 139.006 1292.75 138.953 1295.93C138.806 1296.04 138.373 1295.99 138.016 1295.99C133.86 1295.99 129.592 1295.99 125.576 1295.99C121.086 1295.99 116.708 1295.96 112.386 1295.96C103.589 1295.96 94.9375 1295.95 86.115 1295.9C86.1083 1295.88 86.1013 1295.87 86.084 1295.87C86.0487 1284.33 86.0669 1272.55 86.115 1260.88C86.129 1260.87 86.143 1260.86 86.1463 1260.85C87.2772 1260.83 88.3524 1260.83 89.5179 1260.85C93.407 1264.31 97.1554 1267.91 101.022 1271.39C102.929 1273.16 104.875 1274.88 106.782 1276.65C107.26 1277.09 107.718 1277.55 108.202 1277.98C109.405 1279.06 110.594 1280.18 111.792 1281.28C112.03 1281.5 112.241 1281.76 112.526 1281.92C113.073 1281.53 113.516 1281.05 114.025 1280.63C119.401 1275.82 124.783 1271.03 130.165 1266.23C130.665 1265.8 131.154 1265.36 131.648 1264.92C132.133 1264.49 132.645 1264.06 133.115 1263.61C133.941 1262.82 134.795 1262.06 135.659 1261.3C135.768 1261.2 135.892 1261.04 136.065 1261.05C136.066 1261.82 136.117 1262.72 136.08 1263.54C136.066 1263.86 135.88 1263.91 135.659 1264.11C135.301 1264.43 134.889 1264.78 134.551 1265.09C134.033 1265.56 133.572 1266.03 133.115 1266.43C132.125 1267.3 131.129 1268.18 130.18 1269.06C129.192 1269.97 128.168 1270.79 127.214 1271.65C126.23 1272.55 125.269 1273.43 124.28 1274.28C121.318 1276.88 118.414 1279.54 115.476 1282.17C114.717 1282.79 114.009 1283.47 113.26 1284.11C113.151 1284.23 113.044 1284.33 112.9 1284.45C112.808 1284.53 112.64 1284.75 112.51 1284.75C112.383 1284.75 112.211 1284.52 112.104 1284.42C111.729 1284.08 111.29 1283.68 110.965 1283.38C109.432 1282 107.935 1280.59 106.438 1279.18C104.409 1277.34 102.396 1275.47 100.366 1273.63C96.7981 1270.41 93.3201 1267.1 89.752 1263.88C89.5228 1263.62 89.2458 1263.42 89.0028 1263.18C88.8708 1263.07 88.7562 1262.94 88.6127 1262.84C88.4892 1262.74 88.3907 1262.54 88.2067 1262.56C88.1721 1268.98 88.1599 1275.62 88.1599 1281.96C88.1599 1285.9 88.1331 1289.88 88.1912 1293.78C88.6847 1293.87 89.1956 1293.83 89.6897 1293.83C90.2018 1293.83 90.7102 1293.81 91.2195 1293.83C92.2148 1293.86 93.2091 1293.79 94.201 1293.83C96.2149 1293.92 98.2464 1293.86 100.273 1293.86C112.533 1293.86 124.549 1293.91 136.815 1293.86C136.896 1293.62 136.861 1293.11 136.861 1292.71C136.861 1281.91 136.938 1270.93 136.861 1260.18C136.61 1260.09 136.335 1260.13 136.081 1260.13C130.841 1260.13 125.831 1260.12 120.628 1260.12C118.444 1260.12 116.323 1260.1 114.243 1260.1C105.008 1260.1 94.6829 1260.08 85.1787 1260.1C85.166 1260.1 85.1632 1260.12 85.1474 1260.12C85.1 1269.08 85.1003 1278.18 85.1003 1287.17C85.1003 1290.13 85.1173 1293.04 85.0535 1295.87C84.4313 1295.93 83.6608 1295.92 83.0244 1295.87C82.9812 1289.68 83.0086 1283.5 83.0086 1277.07C83.0089 1271.3 83.0244 1265.3 83.0244 1259.34C83.0244 1258.93 82.9708 1258.5 83.0244 1258.16C83.035 1258.09 83.0326 1258.04 83.1022 1258C97.0249 1258 111.162 1258.03 125.06 1258.03C129.574 1258.03 134.257 1258.06 138.921 1258.05C138.923 1258.08 138.973 1258.06 138.968 1258.09Z" fill="#0E7DAC"/>
<path d="M207.77 1169.3H200.81V1176.26H199.46V1169.3H192.5V1168.1H199.46V1161.14H200.81V1168.1H207.77V1169.3ZM228.781 1160.39V1178.21L225.991 1181H213.871L211.081 1178.21V1174.4H217.981V1179.8H221.881V1170.8H213.571L210.781 1168.01V1160.39L213.571 1157.6H225.991L228.781 1160.39ZM221.881 1169.6V1158.8H217.681V1169.6H221.881ZM245.28 1179.8V1181H232.23V1179.8H235.53V1158.8L232.11 1162.22L231.18 1161.29L234.87 1157.6H242.43V1179.8H245.28ZM255.32 1171.19L257.51 1169L255.32 1166.84V1160.09L257.81 1157.6H269.48L272.27 1160.39V1166.84L270.11 1169L272.27 1171.19V1178.21L269.48 1181H257.81L255.32 1178.51V1171.19ZM265.37 1168.4V1158.8H262.22V1168.4H265.37ZM265.37 1179.8V1169.6H262.22V1179.8H265.37ZM277.747 1181L275.257 1178.51V1174.4H281.857V1179.8H284.707V1169.6H279.007V1168.4H284.707V1158.8H281.857V1164.2H275.257V1160.09L277.747 1157.6H288.817L291.607 1160.39V1166.84L289.447 1169L291.607 1171.19V1178.21L288.817 1181H277.747ZM312.893 1160.39V1178.24L310.103 1181.03L298.283 1181L295.493 1178.21V1160.36L298.283 1157.57L310.103 1157.6L312.893 1160.39ZM302.393 1158.77V1179.8L305.993 1179.83V1158.8L302.393 1158.77ZM323.684 1164.2H317.084V1157.6H334.274L336.494 1160.45L329.144 1173.71V1181H328.694H322.244V1172.15L329.654 1158.8H323.684V1164.2ZM338.581 1171.19L340.771 1169L338.581 1166.84V1160.09L341.071 1157.6H352.741L355.531 1160.39V1166.84L353.371 1169L355.531 1171.19V1178.21L352.741 1181H341.071L338.581 1178.51V1171.19ZM348.631 1168.4V1158.8H345.481V1168.4H348.631ZM348.631 1179.8V1169.6H345.481V1179.8H348.631ZM376.818 1160.39V1178.24L374.028 1181.03L362.208 1181L359.418 1178.21V1160.36L362.208 1157.57L374.028 1157.6L376.818 1160.39ZM366.318 1158.77V1179.8L369.918 1179.83V1158.8L366.318 1158.77ZM387.31 1179.8H390.46V1174.4H397.36V1179.41L395.77 1181H380.41V1170.59L382.3 1168.7H390.46V1158.8H387.31V1164.2H380.41V1160.39L383.2 1157.6H394.57L397.36 1160.39V1167.41L394.87 1169.9H387.31V1179.8ZM418.961 1170.59V1178.21L416.171 1181H403.751L400.961 1178.21V1160.39L403.751 1157.6H415.871L418.661 1160.39V1164.2H411.761V1158.8H407.861V1167.8H416.171L418.961 1170.59ZM407.861 1169V1179.8H412.061V1169H407.861ZM432.753 1175.9H421.053V1172.6L429.033 1157.6H434.973V1161.44L427.923 1174.7H432.753V1170.98L434.283 1168.1H439.503V1179.8H441.603V1181H429.753V1179.8H432.753V1175.9ZM445.881 1181L443.391 1178.51V1174.4H449.991V1179.8H452.841V1169.6H447.141V1168.4H452.841V1158.8H449.991V1164.2H443.391V1160.09L445.881 1157.6H456.951L459.741 1160.39V1166.84L457.581 1169L459.741 1171.19V1178.21L456.951 1181H445.881Z" fill="#82A8B9"/>
<path d="M202.25 1273V1268.2H199.1V1283.8H204.8L207.17 1281.43L208.1 1282.36L205.46 1285H194.99L192.2 1282.21V1269.79L194.99 1267H206.06L208.25 1269.19V1273H202.25ZM227.884 1270.09V1281.91L224.794 1285H213.754L210.664 1281.91V1270.09L213.754 1267H224.794L227.884 1270.09ZM217.864 1268.2V1283.8H220.684V1268.2H217.864ZM252.779 1283.8V1285H245.969L243.479 1282.51V1268.2H241.379L239.279 1270.3V1283.8H240.779V1285H229.979V1283.8H232.379V1268.2H229.979V1267H236.489L238.619 1269.1L240.719 1267H247.589L250.379 1269.79V1283.8H252.779ZM267.323 1282.21L264.533 1285H258.563L255.773 1282.21V1263.1H253.673V1261.9H259.733L262.223 1264.39V1268.8H266.423V1270H262.223V1283.8H263.873L266.393 1281.28L267.323 1282.21ZM272.224 1285L269.734 1282.51V1277.89L272.224 1275.4H279.934V1268.2H276.784V1273H270.484V1269.49L272.974 1267H284.344L286.834 1269.49V1283.8H289.234V1285H282.424L280.624 1283.17L278.794 1285H272.224ZM276.784 1276.6V1283.8H278.134L279.934 1282V1276.6H276.784ZM301.098 1273V1268.2H297.948V1283.8H303.648L306.018 1281.43L306.948 1282.36L304.308 1285H293.838L291.048 1282.21V1269.79L293.838 1267H304.908L307.098 1269.19V1273H301.098ZM321.962 1282.21L319.172 1285H313.202L310.412 1282.21V1263.1H308.312V1261.9H314.372L316.862 1264.39V1268.8H321.062V1270H316.862V1283.8H318.512L321.032 1281.28L321.962 1282.21ZM324.972 1285V1279.6H330.672V1285H324.972ZM356.461 1283.8V1285H349.651L347.161 1282.51V1268.2H345.061L342.961 1270.3V1283.8H344.461V1285H333.661V1283.8H336.061V1268.2H333.661V1267H340.171L342.301 1269.1L344.401 1267H351.271L354.061 1269.79V1283.8H356.461ZM361.345 1285L358.555 1282.21V1269.79L361.345 1267H372.865L375.655 1269.79V1274.71L372.865 1277.5H365.455V1283.8H372.355L374.875 1281.28L375.805 1282.21L373.015 1285H361.345ZM365.455 1268.2V1276.3H368.755V1268.2H365.455ZM382.919 1264.6L378.359 1260.01L382.949 1255.45L387.509 1260.04L382.919 1264.6ZM389.159 1283.8V1285H382.649L379.859 1282.21V1268.2H377.459V1267H383.969L386.759 1269.79V1283.8H389.159ZM409.85 1267V1289.71L407.06 1292.5H393.74L391.25 1290.01V1286.5H398V1291.3H402.95V1281.76L401.51 1283.2H394.19L391.4 1280.41V1269.79L394.19 1267H401.51L403.64 1269.1L405.74 1267H409.85ZM402.95 1279.9V1270.3L400.85 1268.2H398.15V1282H400.85L402.95 1279.9ZM434.292 1283.8V1285H427.782L424.992 1282.21V1268.2H422.592L420.642 1270.15V1283.8H422.442V1285H416.532L413.742 1282.21V1259.8H411.342V1258.6H417.852L420.642 1261.39V1268.29L421.932 1267H429.102L431.892 1269.79V1283.8H434.292ZM437.754 1285.3H436.404V1278.85H437.754V1281.1L440.454 1283.8H446.784L436.704 1273.12V1269.49L439.194 1267H448.044L450.084 1269.04V1266.7H451.434V1273.15H450.084V1270.9L447.384 1268.2H441.654L451.734 1278.88V1282.51L449.244 1285H439.794L437.754 1282.96V1285.3ZM476.772 1283.8V1285H470.262L467.472 1282.21V1268.2H465.072L463.122 1270.15V1283.8H464.922V1285H459.012L456.222 1282.21V1259.8H453.822V1258.6H460.332L463.122 1261.39V1268.29L464.412 1267H471.582L474.372 1269.79V1283.8H476.772ZM495.804 1270.09V1281.91L492.714 1285H481.674L478.584 1281.91V1270.09L481.674 1267H492.714L495.804 1270.09ZM485.784 1268.2V1283.8H488.604V1268.2H485.784ZM500.299 1268.2H497.899V1267H504.409L506.539 1269.1L508.639 1267H515.659L518.449 1269.79V1282.21L515.659 1285H508.639L507.199 1283.56V1293.7H509.299V1294.9H503.089L500.299 1292.11V1268.2ZM507.199 1270.3V1281.7L509.299 1283.8H511.399V1268.2H509.299L507.199 1270.3ZM549.495 1267.06V1282.51L547.005 1285H540.435L538.635 1283.17L536.805 1285H529.785L527.295 1282.51V1271.59L529.785 1269.1H535.905L537.945 1271.14V1269.1H543.945V1283.8H546.345L548.145 1282V1267.57L545.145 1264.57H526.095L523.095 1267.57V1286.2L526.095 1289.2H544.875V1290.4H525.435L521.745 1286.71V1267.06L525.435 1263.37H545.805L549.495 1267.06ZM537.945 1282V1273L535.245 1270.3H533.445V1283.8H536.145L537.945 1282ZM571.393 1267V1289.71L568.603 1292.5H555.283L552.793 1290.01V1286.5H559.543V1291.3H564.493V1281.76L563.053 1283.2H555.733L552.943 1280.41V1269.79L555.733 1267H563.053L565.183 1269.1L567.283 1267H571.393ZM564.493 1279.9V1270.3L562.393 1268.2H559.693V1282H562.393L564.493 1279.9ZM607.535 1283.8V1285H600.875L598.385 1282.51V1268.2H596.285L594.185 1270.3V1283.8H595.985V1285H587.285V1268.2H585.185L583.085 1270.3V1283.8H584.885V1285H573.785V1283.8H576.185V1268.2H573.785V1267H580.295L582.425 1269.1L584.525 1267H591.395L593.525 1269.1L595.625 1267H602.345L605.135 1269.79V1283.8H607.535ZM612.712 1285L610.222 1282.51V1277.89L612.712 1275.4H620.422V1268.2H617.272V1273H610.972V1269.49L613.462 1267H624.832L627.322 1269.49V1283.8H629.722V1285H622.912L621.112 1283.17L619.282 1285H612.712ZM617.272 1276.6V1283.8H618.622L620.422 1282V1276.6H617.272ZM636.396 1264.6L631.836 1260.01L636.426 1255.45L640.986 1260.04L636.396 1264.6ZM642.636 1283.8V1285H636.126L633.336 1282.21V1268.2H630.936V1267H637.446L640.236 1269.79V1283.8H642.636ZM654.327 1283.8V1285H648.117L645.327 1282.21V1259.8H643.227V1258.6H649.437L652.227 1261.39V1283.8H654.327ZM657.316 1285V1279.6H663.016V1285H657.316ZM676.654 1273V1268.2H673.504V1283.8H679.204L681.574 1281.43L682.504 1282.36L679.864 1285H669.394L666.604 1282.21V1269.79L669.394 1267H680.464L682.654 1269.19V1273H676.654ZM702.288 1270.09V1281.91L699.198 1285H688.158L685.068 1281.91V1270.09L688.158 1267H699.198L702.288 1270.09ZM692.268 1268.2V1283.8H695.088V1268.2H692.268ZM738.433 1283.8V1285H731.773L729.283 1282.51V1268.2H727.183L725.083 1270.3V1283.8H726.883V1285H718.183V1268.2H716.083L713.983 1270.3V1283.8H715.783V1285H704.683V1283.8H707.083V1268.2H704.683V1267H711.193L713.323 1269.1L715.423 1267H722.293L724.423 1269.1L726.523 1267H733.243L736.033 1269.79V1283.8H738.433Z" fill="#84B9D0"/>
<path d="M227.02 651.4H223.06L210.82 697H196.48L190.78 675.88L185.14 697H170.8L158.56 651.4H154.6V649H203.02V651.4H198.58L209.38 691.66L220.18 651.4H213.64V649H227.02V651.4ZM189.4 670.6L184.24 651.4H172.9L183.7 691.66L189.4 670.6ZM252.194 649V651.4H247.394V694.6H252.194V697H228.794V694.6H233.594V651.4H228.794V649H252.194ZM291.475 694.6V683.2H294.175V697H254.575V694.6H259.375V651.4H254.575V649H277.975V651.4H273.175V694.6H291.475ZM334.073 694.6V683.2H336.773V697H297.173V694.6H301.973V651.4H297.173V649H320.573V651.4H315.773V694.6H334.073ZM390.756 697H355.356V694.6H360.156V651.4H355.356V649H390.756L396.336 654.58V667.42L391.356 672.4L396.336 677.38V691.42L390.756 697ZM373.956 651.4V671.2H382.536V651.4H373.956ZM373.956 673.6V694.6H382.536V673.6H373.956ZM439.112 697H400.532V694.6H405.332V651.4H400.532V649H439.112V662.8H436.412V651.4H419.132V671.2H434.612V673.6H419.132V694.6H436.412V683.2H439.112V697ZM494.877 697H459.477V694.6H464.277V651.4H459.477V649H494.877L500.457 654.58V667.42L495.477 672.4L500.457 677.38V691.42L494.877 697ZM478.077 651.4V671.2H486.657V651.4H478.077ZM478.077 673.6V694.6H486.657V673.6H478.077ZM556.193 694.6V697H531.353V694.6H537.773L532.733 679H516.113L511.013 694.6H517.133V697H504.053V694.6H508.133L522.953 649H537.293L552.113 694.6H556.193ZM531.953 676.6L524.393 653.44L516.893 676.6H531.953ZM559.773 655.18L565.953 649H589.653L593.853 653.2V648.4H596.553V664.6H593.853V656.92L588.333 651.4H573.573V694.6H589.713L595.113 689.2L596.973 691.06L591.033 697H565.953L559.773 690.82V655.18ZM619.757 694.6H623.957V697H601.157V694.6H605.957V651.4H601.157V649H623.957V651.4H619.757V694.6ZM652.037 694.6V697H633.017L621.857 674.14V671.8L638.417 651.4H633.077V649H647.837V651.4H641.717L625.217 671.8H636.737L647.837 694.6H652.037Z" fill="url(#paint2_radial_796_69)"/>
<defs>
<radialGradient id="paint0_radial_796_69" cx="0" cy="0" r="1" gradientUnits="userSpaceOnUse" gradientTransform="translate(388 707) rotate(90) scale(343 349)">
<stop stop-color="#213552"/>
<stop offset="1" stop-color="#0E7DAC"/>
</radialGradient>
<radialGradient id="paint1_radial_796_69" cx="0" cy="0" r="1" gradientUnits="userSpaceOnUse" gradientTransform="translate(-161.383 1035.04) rotate(90) scale(1.17322)">
<stop offset="0.322917" stop-color="#234372"/>
<stop offset="1" stop-color="#0E7DAC"/>
</radialGradient>
<radialGradient id="paint2_radial_796_69" cx="0" cy="0" r="1" gradientUnits="userSpaceOnUse" gradientTransform="translate(403 682.5) rotate(90) scale(53.5 249)">
<stop stop-color="white"/>
<stop offset="1" stop-color="#0E7DAC"/>
</radialGradient>
<clipPath id="clip0_796_69">
<rect width="64" height="64" fill="white" transform="translate(79 1141)"/>
</clipPath>
</defs>
</svg>
