<svg width="436" height="258" viewBox="0 0 436 258" fill="none" xmlns="http://www.w3.org/2000/svg">
<rect width="436" height="258" fill="white"/>
<circle cx="36" cy="19" r="4" fill="#234372" fill-opacity="0.58"/>
<circle cx="36" cy="29" r="4" fill="#234372" fill-opacity="0.58"/>
<circle cx="36" cy="39" r="4" fill="#234372" fill-opacity="0.58"/>
<circle cx="36" cy="50" r="4" fill="#234372" fill-opacity="0.58"/>
<circle cx="36" cy="61" r="4" fill="#234372" fill-opacity="0.58"/>
<circle cx="26" cy="50" r="4" fill="#234372" fill-opacity="0.58"/>
<circle cx="26" cy="39" r="4" fill="#234372" fill-opacity="0.58"/>
<circle cx="26" cy="27" r="4" fill="#234372" fill-opacity="0.58"/>
<circle cx="46" cy="27" r="4" fill="#234372" fill-opacity="0.58"/>
<circle cx="46" cy="39" r="4" fill="#234372" fill-opacity="0.58"/>
<circle cx="46" cy="50" r="4" fill="#234372" fill-opacity="0.58"/>
<ellipse cx="396" cy="162.5" rx="5" ry="4.5" fill="#D9D9D9"/>
<ellipse cx="396" cy="162.5" rx="5" ry="4.5" fill="#D9D9D9"/>
<ellipse cx="396" cy="174.5" rx="5" ry="4.5" fill="#D9D9D9"/>
<ellipse cx="396" cy="188.5" rx="5" ry="4.5" fill="#D9D9D9"/>
<ellipse cx="396" cy="200.5" rx="5" ry="4.5" fill="#D9D9D9"/>
<ellipse cx="396" cy="213.5" rx="5" ry="4.5" fill="#D9D9D9"/>
<ellipse cx="408" cy="174.5" rx="5" ry="4.5" fill="#D9D9D9"/>
<ellipse cx="408" cy="174.5" rx="5" ry="4.5" fill="#D9D9D9"/>
<ellipse cx="396" cy="148.5" rx="5" ry="4.5" fill="#D9D9D9"/>
<ellipse cx="408" cy="187.5" rx="5" ry="4.5" fill="#D9D9D9"/>
<ellipse cx="408" cy="201.5" rx="5" ry="4.5" fill="#D9D9D9"/>
<ellipse cx="408" cy="213.5" rx="5" ry="4.5" fill="#D9D9D9"/>
<ellipse cx="408" cy="229.5" rx="5" ry="4.5" fill="#D9D9D9"/>
<ellipse cx="408" cy="241.5" rx="5" ry="4.5" fill="#D9D9D9"/>
<ellipse cx="383" cy="174.5" rx="5" ry="4.5" fill="#D9D9D9"/>
<ellipse cx="383" cy="186.5" rx="5" ry="4.5" fill="#D9D9D9"/>
<ellipse cx="383" cy="199.5" rx="5" ry="4.5" fill="#D9D9D9"/>
<ellipse cx="383" cy="212.5" rx="5" ry="4.5" fill="#D9D9D9"/>
<ellipse cx="383" cy="225.5" rx="5" ry="4.5" fill="#D9D9D9"/>
<ellipse cx="383" cy="238.5" rx="5" ry="4.5" fill="#D9D9D9"/>
</svg>
